<svg width="77" height="48" viewBox="0 0 77 48" fill="none" xmlns="http://www.w3.org/2000/svg">
<path d="M38.4375 47H27.5312L11.4062 18.6875V47H0.4375V1.5H11.4062L27.5 29.8125V1.5H38.4375V47Z" fill="#2E86DE"/>
<path d="M76.225 41.375C74.5375 43.25 72.0687 44.7604 68.8187 45.9062C65.5687 47.0521 62.0062 47.625 58.1312 47.625C52.1729 47.625 47.4125 45.8021 43.85 42.1562C40.2875 38.5104 38.3812 33.4375 38.1312 26.9375L38.1 23C38.1 18.5208 38.8917 14.6146 40.475 11.2812C42.0583 7.92708 44.3187 5.35417 47.2562 3.5625C50.2146 1.75 53.6312 0.84375 57.5062 0.84375C63.1729 0.84375 67.5687 2.14583 70.6937 4.75C73.8396 7.33333 75.6729 11.1979 76.1937 16.3438H65.6312C65.2562 13.8021 64.4437 11.9896 63.1937 10.9062C61.9437 9.82292 60.1729 9.28125 57.8812 9.28125C55.1312 9.28125 53.0062 10.4479 51.5062 12.7812C50.0062 15.1146 49.2458 18.4479 49.225 22.7812V25.5312C49.225 30.0729 49.9958 33.4896 51.5375 35.7812C53.1 38.0521 55.5479 39.1875 58.8812 39.1875C61.7354 39.1875 63.8604 38.5521 65.2562 37.2812V30.2188H57.6312V22.6875H76.225V41.375Z" fill="#2E86DE"/>
<path d="M76.225 41.375C74.5375 43.25 72.0687 44.7604 68.8187 45.9062C65.5687 47.0521 62.0062 47.625 58.1312 47.625C52.1729 47.625 47.4125 45.8021 43.85 42.1562C40.2875 38.5104 38.3812 33.4375 38.1312 26.9375L38.1 23C38.1 18.5208 38.8917 14.6146 40.475 11.2812C42.0583 7.92708 44.3187 5.35417 47.2562 3.5625C50.2146 1.75 53.6312 0.84375 57.5062 0.84375C63.1729 0.84375 67.5687 2.14583 70.6937 4.75C73.8396 7.33333 75.6729 11.1979 76.1937 16.3438H65.6312C65.2562 13.8021 64.4437 11.9896 63.1937 10.9062C61.9437 9.82292 60.1729 9.28125 57.8812 9.28125C55.1312 9.28125 53.0062 10.4479 51.5062 12.7812C50.0062 15.1146 49.2458 18.4479 49.225 22.7812V25.5312C49.225 30.0729 49.9958 33.4896 51.5375 35.7812C53.1 38.0521 55.5479 39.1875 58.8812 39.1875C61.7354 39.1875 63.8604 38.5521 65.2562 37.2812V30.2188H57.6312V22.6875H76.225V41.375Z" fill="#10AC84"/>
</svg>
