<?xml version="1.0" ?><svg viewBox="0 0 64 64" xmlns="http://www.w3.org/2000/svg"><title/><g data-name="18-man" id="_18-man"><polygon points="32 41 29 44 26 41 26 37.42 28 37 32 41" style="fill:#2e86de"/><polygon points="38 37.42 38 41 35 44 32 41 36 37 38 37.42" style="fill:#2e86de"/><path d="M31,46l-1.8,6.29c-5.23-2.85-6.13-13.41-6.2-14.24l3-.63V41l3,3Z" style="fill:#e9edf5"/><path d="M38,37.42l2.99.63c-.06.82-.96,11.39-6.19,14.24L33,46l2-2,3-3Z" style="fill:#e9edf5"/><path d="M33,46l1.8,6.29a5.876,5.876,0,0,1-5.6,0L31,46Z" style="fill:#7e8596"/><polygon points="35 44 33 46 31 46 29 44 32 41 35 44" style="fill:#7e8596"/><path d="M34.8,52.29c5.23-2.85,6.13-13.42,6.19-14.24L55,41V63H32V53A5.733,5.733,0,0,0,34.8,52.29Z" style="fill:#2e86de"/><path d="M29.2,52.29A5.733,5.733,0,0,0,32,53V63H9V41l14-2.95C23.07,38.88,23.97,49.44,29.2,52.29Z" style="fill:#2e86de"/><path d="M40.99,38.05c-.06.82-.96,11.39-6.19,14.24A5.733,5.733,0,0,1,32,53v4a5.733,5.733,0,0,0,2.8-.71c5.23-2.85,6.13-13.42,6.19-14.24L55,45V41Z" style="fill:#5CA1E6"/><path d="M29.2,52.29c-5.23-2.85-6.13-13.41-6.2-14.24L9,41v4l14-2.95c.07.83.97,11.39,6.2,14.24A5.733,5.733,0,0,0,32,57V53A5.733,5.733,0,0,1,29.2,52.29Z" style="fill:#5CA1E6"/><path d="M24,16v8a4,4,0,1,1,0-8Z" style="fill:#eb975d"/><path d="M42.83,17.17A4,4,0,0,1,40,24V16A4.025,4.025,0,0,1,42.83,17.17Z" style="fill:#eb975d"/><path d="M36,32v5l-4,4-4-4V32l.03-.06a7.964,7.964,0,0,0,7.94,0Z" style="fill:#ffb680"/><path d="M35.97,31.94a7.964,7.964,0,0,1-7.94,0L28,32v3l.03-.06a7.964,7.964,0,0,0,7.94,0L36,35V32Z" style="fill:#eb975d"/><path d="M40,24v1a7.992,7.992,0,0,1-11.97,6.94,7.838,7.838,0,0,1-1.69-1.28A8.014,8.014,0,0,1,24,25V16l3-3v3l3-3v3l3-3h4l3,3Z" style="fill:#ffdaaa"/><polygon points="37 13 33 13 30 16 30 13 27 16 27 13 24 16 24 20 27 17 27 20 30 17 30 20 33 17 37 17 40 20 40 16 37 13" style="fill:#ffb680"/><path d="M44,13v3l-1,1-.17.17A4.025,4.025,0,0,0,40,16l-3-3H33l-3,3V13l-3,3V13l-3,3a4.025,4.025,0,0,0-2.83,1.17L21,17l-1-1V4h4L21,1H32A12,12,0,0,1,44,13Z" style="fill:#414952"/><path d="M32,1H21l3,3h5A12,12,0,0,1,41,16v.143a4.056,4.056,0,0,1,1.83,1.027L43,17l1-1V13A12,12,0,0,0,32,1Z" style="fill:#707789"/><path d="M40,16v9a7.992,7.992,0,0,1-11.97,6.94,7.838,7.838,0,0,1-1.69-1.28A8.014,8.014,0,0,1,24,25V16l3-3v3l3-3v3l3-3h4Z" style="fill:none;stroke:#000;stroke-linejoin:round;stroke-width:2px"/><path d="M43,17l1-1V13A12,12,0,0,0,32,1" style="fill:none;stroke:#000;stroke-linejoin:round;stroke-width:2px"/><path d="M40,24a4,4,0,1,0,0-8" style="fill:none;stroke:#000;stroke-linejoin:round;stroke-width:2px"/><path d="M24,16a4,4,0,0,0,0,8" style="fill:none;stroke:#000;stroke-linejoin:round;stroke-width:2px"/><polyline points="28 32 28 37 26 37.42 23 38.05 9 41 9 63 15 63 32 63 49 63 55 63 55 41 40.99 38.05 38 37.42 36 37 36 32" style="fill:none;stroke:#000;stroke-linejoin:round;stroke-width:2px"/><polyline points="28 37 32 41 36 37" style="fill:none;stroke:#000;stroke-linejoin:round;stroke-width:2px"/><line style="fill:none;stroke:#000;stroke-linejoin:round;stroke-width:2px" x1="15" x2="15" y1="63" y2="50"/><line style="fill:none;stroke:#000;stroke-linejoin:round;stroke-width:2px" x1="49" x2="49" y1="63" y2="50"/><path d="M23,38v.05c.07.83.97,11.39,6.2,14.24a5.876,5.876,0,0,0,5.6,0c5.23-2.85,6.13-13.42,6.19-14.24A.175.175,0,0,0,41,38" style="fill:none;stroke:#000;stroke-linejoin:round;stroke-width:2px"/><polyline points="38 37 38 37.42 38 41 35 44 32 41 29 44 26 41 26 37.42 26 37" style="fill:none;stroke:#000;stroke-linejoin:round;stroke-width:2px"/><polyline points="29 44 31 46 33 46 35 44" style="fill:none;stroke:#000;stroke-linejoin:round;stroke-width:2px"/><polyline points="31 46 29.2 52.29 29 53" style="fill:none;stroke:#000;stroke-linejoin:round;stroke-width:2px"/><polyline points="33 46 34.8 52.29 35 53" style="fill:none;stroke:#000;stroke-linejoin:round;stroke-width:2px"/><line style="fill:none;stroke:#000;stroke-linejoin:round;stroke-width:2px" x1="32" x2="32" y1="53" y2="63"/><polyline points="32 1 21 1 24 4 20 4 20 16 21 17" style="fill:none;stroke:#000;stroke-linejoin:round;stroke-width:2px"/></g></svg>