<?xml version="1.0" ?><svg id="Layer_1" style="enable-background:new 0 0 50 50;" version="1.1" viewBox="0 0 50 50" xml:space="preserve" xmlns="http://www.w3.org/2000/svg" xmlns:xlink="http://www.w3.org/1999/xlink"><style type="text/css">
	.st0{fill:#F0C4DB;}
	.st1{fill:#FF9D9C;}
	.st2{fill:#9BEAF9;}
	.st3{fill:#E9F4BC;}
	.st4{fill:#505050;}
	.st5{fill:#FEBECC;}
	.st6{fill:#FFFFFF;}
	.st7{fill:#FDE4A1;}
	.st8{fill:#FEE7B5;}
	.st9{fill:#CDF6FC;}
	.st10{fill:#F2C6DD;}
	.st11{opacity:0.1;}
</style><g><polyline class="st1" points="42.29,14.14 42.29,22.29 48,18.65 42.29,14.14  "/><polyline class="st1" points="7.72,14.14 2,18.65 7.72,22.3 7.72,14.14  "/><polygon class="st6" points="42.29,22.29 42.29,2 25,2 7.72,2 7.72,22.3 25,33.32  "/><polygon class="st3" points="48,18.65 30.19,30.01 48,47.99  "/><polygon class="st3" points="2,18.65 2,47.99 19.81,30.01  "/><polygon class="st7" points="30.19,30.01 25,33.32 19.81,30.01 2,47.99 2,48 48,48 48,47.99  "/><g><path class="st4" d="M48.75,18.65c0-0.01-0.01-0.02-0.01-0.02c0-0.01,0-0.01,0-0.02c0-0.05-0.02-0.1-0.03-0.15    c-0.01-0.05-0.02-0.09-0.04-0.13c-0.01-0.01-0.01-0.03-0.02-0.04c-0.01-0.02-0.03-0.04-0.05-0.06c0,0-0.01-0.01-0.01-0.01    c-0.03-0.04-0.06-0.08-0.1-0.12c-0.01-0.01-0.02-0.02-0.03-0.03l-5.42-4.28V2c0-0.2-0.08-0.4-0.22-0.53    c-0.14-0.14-0.33-0.22-0.53-0.22H13.58c-0.41,0-0.75,0.33-0.75,0.75c0,0.41,0.34,0.75,0.75,0.75h27.96v19.12L25,32.43L8.47,21.88    V2.75h1.11c0.41,0,0.75-0.34,0.75-0.75c0-0.42-0.34-0.75-0.75-0.75H7.72c-0.2,0-0.39,0.08-0.53,0.22C7.05,1.6,6.97,1.8,6.97,2    v11.77l-5.43,4.28c-0.01,0.01-0.02,0.02-0.03,0.03c-0.04,0.03-0.07,0.08-0.1,0.12c-0.01,0.01-0.02,0.02-0.02,0.03    c-0.01,0.01-0.02,0.02-0.03,0.04c-0.01,0.02-0.01,0.03-0.02,0.05c-0.02,0.04-0.03,0.09-0.04,0.13c-0.01,0.05-0.03,0.1-0.03,0.15    c0,0.02-0.01,0.03-0.01,0.04V48c0,0.41,0.34,0.75,0.75,0.75h46c0.31,0,0.58-0.19,0.69-0.46c0,0,0,0,0,0    c0.04-0.09,0.06-0.19,0.06-0.29c0,0,0,0,0,0V18.65z M18.62,30.14L2.75,46.17V20.01L18.62,30.14z M47.25,20.01v26.15L31.38,30.14    L47.25,20.01z M43.04,15.69l3.67,2.89l-3.67,2.34V15.69z M25.4,33.95l4.68-2.99L46.2,47.24H3.8l16.12-16.28l4.68,2.99    C24.84,34.11,25.16,34.11,25.4,33.95z M6.97,20.92l-3.67-2.34l3.67-2.9V20.92z"/><circle class="st4" cx="11.58" cy="2" r="0.75"/><path class="st4" d="M37.92,5.77H12.08c-0.41,0-0.75,0.34-0.75,0.75s0.34,0.75,0.75,0.75h25.84c0.41,0,0.75-0.34,0.75-0.75    S38.34,5.77,37.92,5.77z"/><path class="st4" d="M37.92,10.01H12.08c-0.41,0-0.75,0.34-0.75,0.75s0.34,0.75,0.75,0.75h25.84c0.41,0,0.75-0.34,0.75-0.75    S38.34,10.01,37.92,10.01z"/><path class="st4" d="M38.67,15.01c0-0.41-0.34-0.75-0.75-0.75H12.08c-0.41,0-0.75,0.34-0.75,0.75s0.34,0.75,0.75,0.75h25.84    C38.34,15.76,38.67,15.42,38.67,15.01z"/><path class="st4" d="M12.08,18.51c-0.41,0-0.75,0.34-0.75,0.75s0.34,0.75,0.75,0.75h11.03c0.41,0,0.75-0.34,0.75-0.75    s-0.34-0.75-0.75-0.75H12.08z"/></g></g></svg>