<?xml version="1.0" ?><svg id="Layer_1" style="enable-background:new 0 0 128 128;" version="1.1" viewBox="0 0 128 128" xml:space="preserve" xmlns="http://www.w3.org/2000/svg" xmlns:xlink="http://www.w3.org/1999/xlink"><style type="text/css">
	.st0{fill:#581166;}
	.st1{fill:#E83A3A;}
	.st2{fill:#FF5855;}
	.st3{opacity:0.5;}
	.st4{fill:#FFDA8E;}
	.st5{fill:#FFFFFF;}
	.st6{fill:#EABA65;}
	.st7{fill:#E6E6E6;}
	.st8{fill:#460A54;}
	.st9{fill:none;}
	.st10{fill:none;stroke:#581166;stroke-width:2;stroke-linecap:round;stroke-linejoin:round;stroke-miterlimit:10;}
	.st11{fill:#F2F2F2;}
</style><g><g><g><g><path class="st0" d="M73.6,52.6H56.7c-5.7,0-10.3-4.6-10.3-10.3v-9.4c0-5.7,4.6-10.3,10.3-10.3h16.9c5.7,0,10.3,4.6,10.3,10.3      v9.4C83.9,48,79.2,52.6,73.6,52.6z M56.7,28.2c-2.6,0-4.7,2.1-4.7,4.7v9.4c0,2.6,2.1,4.7,4.7,4.7h16.9c2.6,0,4.7-2.1,4.7-4.7      v-9.4c0-2.6-2.1-4.7-4.7-4.7H56.7z"/></g></g></g><g><g><g><path class="st1" d="M104.5,102H25.8c-4.1,0-7.5-3.4-7.5-7.5v-45c0-4.1,3.4-7.5,7.5-7.5h78.7c4.1,0,7.5,3.4,7.5,7.5v45      C112,98.6,108.6,102,104.5,102z"/></g></g></g><g><g><g><path class="st2" d="M104.5,96.6H25.8c-4.1,0-7.5-3.4-7.5-7.5v-45c0-4.1,3.4-7.5,7.5-7.5h78.7c4.1,0,7.5,3.4,7.5,7.5v45      C112,93.2,108.6,96.6,104.5,96.6z"/></g></g></g><g><g><g><path class="st2" d="M112,89.1v5.3c0,4.1-3.4,7.5-7.5,7.5H25.8c-4.1,0-7.5-3.4-7.5-7.5v-5.3c0,4.1,3.4,7.5,7.5,7.5h78.7      C108.6,96.6,112,93.2,112,89.1z"/></g></g></g><g class="st3"><g><g><g><path class="st0" d="M112,89.1v5.3c0,4.1-3.4,7.5-7.5,7.5H25.8c-4.1,0-7.5-3.4-7.5-7.5v-5.3c0,4.1,3.4,7.5,7.5,7.5h78.7       C108.6,96.6,112,93.2,112,89.1z"/></g></g></g></g><g><g><g><path class="st1" d="M112,49.5v39.6c0,4.1-3.4,7.5-7.5,7.5H25.8c-4.1,0-7.5-3.4-7.5-7.5V49.5c0-4.1,3.4-7.5,7.5-7.5h78.7      C108.6,42,112,45.4,112,49.5z"/></g></g></g><g><g><g><path class="st2" d="M112,44.2v45c0,4.1-3.4,7.5-7.5,7.5H25.8c-4.1,0-7.5-3.4-7.5-7.5v-45c0-4.1,3.4-7.5,7.5-7.5h78.7      C108.6,36.7,112,40,112,44.2z"/></g></g></g><g><g><g><path class="st0" d="M104.5,103.8H25.8c-5.2,0-9.4-4.2-9.4-9.4V44.2c0-5.2,4.2-9.4,9.4-9.4h78.7c5.2,0,9.4,4.2,9.4,9.4v50.3      C113.8,99.6,109.6,103.8,104.5,103.8z M25.8,38.5c-3.1,0-5.6,2.5-5.6,5.6v50.3c0,3.1,2.5,5.6,5.6,5.6h78.7      c3.1,0,5.6-2.5,5.6-5.6V44.2c0-3.1-2.5-5.6-5.6-5.6H25.8z"/></g></g></g><g><g><g><g><g><path class="st0" d="M38.1,90.7c-1,0-1.9-0.8-1.9-1.9V41.3c0-1,0.8-1.9,1.9-1.9c1,0,1.9,0.8,1.9,1.9v47.5        C40,89.9,39.1,90.7,38.1,90.7z"/></g></g></g><g><g><g><path class="st4" d="M42.5,54h-8.7c-1,0-1.9-0.8-1.9-1.9c0-1,0.8-1.9,1.9-1.9h8.7c1,0,1.9,0.8,1.9,1.9        C44.3,53.2,43.5,54,42.5,54z"/></g></g></g><g><g><g><path class="st4" d="M42.5,81.3h-8.7c-1,0-1.9-0.8-1.9-1.9s0.8-1.9,1.9-1.9h8.7c1,0,1.9,0.8,1.9,1.9S43.5,81.3,42.5,81.3z"/></g></g></g></g><g><g><g><g><path class="st0" d="M92.2,90.7c-1,0-1.9-0.8-1.9-1.9V41.3c0-1,0.8-1.9,1.9-1.9c1,0,1.9,0.8,1.9,1.9v47.5        C94.1,89.9,93.2,90.7,92.2,90.7z"/></g></g></g><g><g><g><path class="st4" d="M96.6,54h-8.7c-1,0-1.9-0.8-1.9-1.9c0-1,0.8-1.9,1.9-1.9h8.7c1,0,1.9,0.8,1.9,1.9        C98.4,53.2,97.6,54,96.6,54z"/></g></g></g><g><g><g><path class="st4" d="M96.6,81.3h-8.7c-1,0-1.9-0.8-1.9-1.9s0.8-1.9,1.9-1.9h8.7c1,0,1.9,0.8,1.9,1.9S97.6,81.3,96.6,81.3z"/></g></g></g></g></g></g></svg>