<?xml version="1.0" ?><svg data-name="Layer 1" height="24" id="Layer_1" viewBox="0 0 24 24" width="24" xmlns="http://www.w3.org/2000/svg"><title/><path d="M20,20H5l1.8194-6.8734a1.793,1.793,0,0,1,.7778-1.0582L10,10.5556V8.49488a1.79264,1.79264,0,0,1,.5617-1.30318L14.265,3.69421a1.57479,1.57479,0,0,1,1.6722-.31487l4.929,1.99508a1.51108,1.51108,0,0,1,.9212,1.66344L21,11.5,20,7.72222l-3-.94444-1,.94444,2.0304,3.15508a1.79257,1.79257,0,0,1-.2728,2.2696l-.5909.5614Z" style="fill:#4b5661"/><path d="M12,17C2,17,2,21,2,21H22S22,17,12,17Z" style="fill:#4b5661"/><polygon points="5.794 17 18.649 17 17.748 15 6.323 15 5.794 17" style="fill:#ee5253"/><path d="M12.5,18.25h-1A1.75218,1.75218,0,0,1,9.75,16.5v-1a1.75218,1.75218,0,0,1,1.75-1.75h1a1.75218,1.75218,0,0,1,1.75,1.75v1A1.75218,1.75218,0,0,1,12.5,18.25Zm-1-3a.25047.25047,0,0,0-.25.25v1a.25047.25047,0,0,0,.25.25h1a.25048.25048,0,0,0,.25-.25v-1a.25048.25048,0,0,0-.25-.25Z" style="fill:#fff"/></svg>