<svg width="200px" height="200px" xmlns="http://www.w3.org/2000/svg" viewBox="53.400000000000006 -106.29999999999998 393.2 362.59999999999997" style="background: rgb(255, 255, 255);" preserveAspectRatio="xMidYMid"><defs><linearGradient id="editing-gradient-gradient" x1="0" x2="1" y1="0.5" y2="0.5" gradientUnits="objectBoundingBox"><stop offset="0" stop-color="#2e86de"></stop><stop offset="1" stop-color="#10ac84"></stop></linearGradient></defs><g><g transform="translate(112.31890773773193, 139.45000076293945)"><path d="M9.99 2.26L6.45 0.32L6.45-36.09L6.45-36.09Q6.28-56.07 7.73-112.31L7.73-112.31L7.73-118.92L7.73-118.92Q7.73-120.69 8.38-121.01L8.38-121.01L63.81-121.01L63.81-121.01Q64.61-121.01 67.07-114.89L67.07-114.89L67.07-114.89Q69.53-108.76 73.03-99.14L73.03-99.14L73.03-99.14Q76.54-89.51 77.99-85.88L77.99-85.88L89.27-56.40L89.27-87.66L89.27-87.66Q89.27-91.68 89.47-102.44L89.47-102.44L89.47-102.44Q89.67-113.20 89.59-119.24L89.59-119.24L89.59-119.24Q89.59-121.49 102.48-121.49L102.48-121.49L102.48-121.49Q106.51-121.49 113.52-121.33L113.52-121.33L113.52-121.33Q120.53-121.17 122.14-121.17L122.14-121.17L128.26-121.17L128.26-121.17Q129.55-121.17 129.55-120.69L129.55-120.69L129.55-120.69Q130.03-98.29 130.03-56.56L130.03-56.56L130.03-0.64L130.03-0.64Q129.47 1.45 124.88 1.45L124.88 1.45L122.78 1.45L122.78 1.45Q118.59 1.45 110.46 1.61L110.46 1.61L110.46 1.61Q102.32 1.77 98.13 1.77L98.13 1.77L74.44 1.77L74.44 1.77Q73.32 1.37 69.77-8.38L69.77-8.38L69.77-8.38Q65.98-18.93 58.49-38.91L58.49-38.91L58.49-38.91Q51.00-58.89 50.11-61.23L50.11-61.23L50.11-61.23Q50.11-56.48 50.03-47.05L50.03-47.05L50.03-47.05Q49.95-37.62 49.95-32.87L49.95-32.87L49.95-32.87Q49.95-29.33 50.11-22.24L50.11-22.24L50.11-22.24Q50.27-15.15 50.27-11.60L50.27-11.60L50.27-1.45L50.27-1.45Q50.27 2.26 47.05 2.26L47.05 2.26L9.99 2.26ZM129.55-120.53L129.55-120.85L129.55-120.53ZM142.44-60.26L142.44-60.26L142.44-60.26Q142.44-71.38 144.94-80.65L144.94-80.65L144.94-80.65Q147.44-89.91 151.59-96.36L151.59-96.36L151.59-96.36Q155.73-102.80 161.58-107.80L161.58-107.80L161.58-107.80Q167.42-112.79 173.62-115.81L173.62-115.81L173.62-115.81Q179.82-118.84 186.95-120.77L186.95-120.77L186.95-120.77Q194.08-122.70 200.29-123.39L200.29-123.39L200.29-123.39Q206.49-124.07 212.86-124.07L212.86-124.07L212.86-124.07Q217.53-124.07 222.00-123.67L222.00-123.67L222.00-123.67Q226.47-123.27 232.07-122.26L232.07-122.26L232.07-122.26Q237.67-121.25 242.55-119.16L242.55-119.16L242.55-119.16Q247.42-117.06 251.89-114.04L251.89-114.04L251.89-114.04Q256.36-111.02 259.67-106.23L259.67-106.23L259.67-106.23Q262.97-101.43 264.42-95.39L264.42-95.39L264.42-95.39Q264.82-93.05 266.03-82.18L266.03-82.18L266.03-82.18Q265.71-79.76 260.87-79.76L260.87-79.76L260.87-79.76Q253.95-79.76 240.73-80.08L240.73-80.08L240.73-80.08Q227.52-80.41 220.91-80.41L220.91-80.41L220.91-80.41Q219.95-80.73 219.38-81.69L219.38-81.69L219.38-81.69Q218.82-82.66 218.62-83.79L218.62-83.79L218.62-83.79Q218.42-84.92 217.97-86.21L217.97-86.21L217.97-86.21Q217.53-87.50 216.84-88.50L216.84-88.50L216.84-88.50Q216.16-89.51 214.43-90.19L214.43-90.19L214.43-90.19Q212.70-90.88 210.12-90.88L210.12-90.88L210.12-90.88Q206.73-90.88 204.07-89.71L204.07-89.71L204.07-89.71Q201.42-88.54 199.72-86.85L199.72-86.85L199.72-86.85Q198.03-85.16 196.82-82.26L196.82-82.26L196.82-82.26Q195.62-79.36 195.01-76.98L195.01-76.98L195.01-76.98Q194.41-74.60 194.08-70.94L194.08-70.94L194.08-70.94Q193.76-67.27 193.72-65.18L193.72-65.18L193.72-65.18Q193.68-63.08 193.68-59.62L193.68-59.62L193.68-59.62Q193.68-58.57 193.76-57.04L193.76-57.04L193.76-57.04Q193.84-55.51 193.84-54.95L193.84-54.95L193.84-52.53L193.84-52.53Q193.84-49.95 193.92-48.26L193.92-48.26L193.92-48.26Q194.00-46.57 194.37-43.91L194.37-43.91L194.37-43.91Q194.73-41.25 195.37-39.44L195.37-39.44L195.37-39.44Q196.02-37.62 197.27-35.57L197.27-35.57L197.27-35.57Q198.52-33.52 200.33-32.27L200.33-32.27L200.33-32.27Q202.14-31.02 204.88-30.17L204.88-30.17L204.88-30.17Q207.62-29.33 211.08-29.33L211.08-29.33L211.08-29.33Q220.03-29.33 225.75-31.10L225.75-31.10L225.75-40.93L222.20-40.93L222.20-40.77L216.40-40.77L216.40-40.77Q215.76-40.77 214.11-40.69L214.11-40.69L214.11-40.69Q212.45-40.61 211.41-40.61L211.41-40.61L208.51-43.83L208.51-66.06L208.51-66.06Q208.51-68.16 211.41-70.58L211.41-70.58L217.21-70.58L217.21-70.58Q223.25-70.58 231.87-70.42L231.87-70.42L231.87-70.42Q240.49-70.25 245.08-70.25L245.08-70.25L251.53-70.25L251.53-70.25Q256.20-70.25 258.82-70.17L258.82-70.17L258.82-70.17Q261.44-70.09 264.66-69.41L264.66-69.41L264.66-69.41Q267.88-68.72 268.93-67.35L268.93-67.35L268.93-67.35Q268.93-56.80 268.45-36.58L268.45-36.58L268.45-36.58Q267.96-16.35 267.96-7.25L267.96-7.25L267.96-7.25Q267.96-7.01 268.04-6.49L268.04-6.49L268.04-6.49Q268.13-5.96 268.13-5.64L268.13-5.64L268.13-3.87L268.13-3.87Q265.39-0.64 250.24 1.77L250.24 1.77L250.24 1.77Q235.09 4.19 224.78 4.19L224.78 4.19L222.69 4.19L222.69 4.19Q220.43 4.19 216.00 4.51L216.00 4.51L216.00 4.51Q211.57 4.83 209.31 4.83L209.31 4.83L209.31 4.83Q176.84 4.83 159.64-12.53L159.64-12.53L159.64-12.53Q142.44-29.89 142.44-60.26Z" fill="url(#editing-gradient-gradient)"></path></g></g><style>text {
  font-size: 64px;
  font-family: Arial Black;
  dominant-baseline: central;
  text-anchor: middle;
}</style></svg>